<svg version="1.1" id="Layer_1" xmlns="http://www.w3.org/2000/svg" xmlns:xlink="http://www.w3.org/1999/xlink" x="0px" y="0px"
	 width="100%" viewBox="0 0 300 300" enable-background="new 0 0 300 300" xml:space="preserve">
<path fill="#FEFFFF" opacity="1.000000" stroke="none" 
	d="
M146.000000,301.000000 
	C97.333344,301.000000 49.166683,301.000000 1.000019,301.000000 
	C1.000013,201.000031 1.000013,101.000053 1.000006,1.000060 
	C100.999962,1.000040 200.999924,1.000040 300.999908,1.000020 
	C300.999939,100.999939 300.999939,200.999878 300.999969,300.999908 
	C249.500000,301.000000 198.000000,301.000000 146.000000,301.000000 
M80.033012,128.214294 
	C60.665405,132.628952 46.528137,143.467178 39.424809,162.298157 
	C27.270437,194.519531 49.848030,231.020279 83.702713,233.265778 
	C88.857048,233.490738 94.011070,233.901917 99.165771,233.910568 
	C133.656631,233.968491 168.147644,233.947769 202.638596,233.930756 
	C206.469727,233.928864 210.307846,233.912842 214.130768,233.694260 
	C239.220337,232.259766 258.299896,217.033875 264.314301,193.719223 
	C270.057709,171.455048 260.623016,148.041016 240.929703,135.685822 
	C220.900162,123.119713 196.485382,125.160858 177.478958,141.332474 
	C170.509277,147.262619 163.993744,153.735001 157.382126,160.075851 
	C138.866913,177.832886 120.409645,195.650314 101.019112,213.263824 
	C96.524902,213.134750 92.021530,213.145218 87.538177,212.850784 
	C73.304543,211.915939 61.910480,202.887985 58.131012,189.696808 
	C54.378983,176.601425 59.148045,162.663727 70.122093,154.652527 
	C81.570648,146.294937 95.351944,146.051620 107.430428,154.282516 
	C111.266670,156.896729 114.725845,160.074783 118.289246,163.075943 
	C121.924034,166.137207 125.474808,169.298218 128.995605,172.357529 
	C134.043060,167.256439 138.682693,162.567490 143.569565,157.628693 
	C138.945831,153.580597 134.311234,149.563538 129.721512,145.495850 
	C121.418869,138.137589 112.532753,131.790070 101.717171,128.216888 
	C103.530182,119.907715 107.303719,112.580513 112.898170,106.206108 
	C135.909607,79.986511 177.298615,84.153656 194.984299,114.388138 
	C195.860870,115.886703 197.636353,118.038910 198.862473,117.955849 
	C205.246521,117.523376 211.588165,116.464935 218.241318,115.585144 
	C218.020493,114.861679 217.835617,114.083733 217.549911,113.344757 
	C204.513824,79.628304 167.262680,60.880894 132.390533,70.478424 
	C105.024986,78.009995 83.054947,102.478798 80.033012,128.214294 
z"/>
<path fill="#06A3FF" opacity="1.000000" stroke="none" 
	d="
M101.929512,213.443924 
	C120.409645,195.650314 138.866913,177.832886 157.382126,160.075851 
	C163.993744,153.735001 170.509277,147.262619 177.478958,141.332474 
	C196.485382,125.160858 220.900162,123.119713 240.929703,135.685822 
	C260.623016,148.041016 270.057709,171.455048 264.314301,193.719223 
	C258.299896,217.033875 239.220337,232.259766 214.130768,233.694260 
	C210.307846,233.912842 206.469727,233.928864 202.638596,233.930756 
	C168.147644,233.947769 133.656631,233.968491 99.165771,233.910568 
	C94.011070,233.901917 88.857048,233.490738 83.470261,232.828033 
	C89.468376,226.074844 95.698944,219.759384 101.929512,213.443924 
M198.499329,213.171204 
	C203.823364,213.069687 209.171982,213.258102 214.466614,212.809509 
	C227.646820,211.692841 237.577179,205.450623 242.623383,192.960541 
	C247.452545,181.007645 245.597549,169.694443 237.348495,159.754883 
	C225.261093,145.190369 204.794708,144.208145 189.954178,157.994827 
	C171.790878,174.868317 154.140976,192.294525 136.278900,209.491959 
	C135.274048,210.459396 134.358200,211.519287 132.802429,213.171890 
	C154.985291,213.171890 176.242447,213.171890 198.499329,213.171204 
z"/>
<path fill="#06C7D8" opacity="1.000000" stroke="none" 
	d="
M101.474312,213.353882 
	C95.698944,219.759384 89.468376,226.074844 83.076889,232.686295 
	C49.848030,231.020279 27.270437,194.519531 39.424809,162.298157 
	C46.528137,143.467178 60.665405,132.628952 80.820610,128.150253 
	C83.706604,128.360092 85.799553,128.805923 87.904510,128.872467 
	C92.453293,129.016266 97.008224,128.965530 101.560646,128.994354 
	C112.532753,131.790070 121.418869,138.137589 129.721512,145.495850 
	C134.311234,149.563538 138.945831,153.580597 143.569565,157.628693 
	C138.682693,162.567490 134.043060,167.256439 128.995605,172.357529 
	C125.474808,169.298218 121.924034,166.137207 118.289246,163.075943 
	C114.725845,160.074783 111.266670,156.896729 107.430428,154.282516 
	C95.351944,146.051620 81.570648,146.294937 70.122093,154.652527 
	C59.148045,162.663727 54.378983,176.601425 58.131012,189.696808 
	C61.910480,202.887985 73.304543,211.915939 87.538177,212.850784 
	C92.021530,213.145218 96.524902,213.134750 101.474312,213.353882 
z"/>
<path fill="#0470FF" opacity="1.000000" stroke="none" 
	d="
M101.638908,128.605621 
	C97.008224,128.965530 92.453293,129.016266 87.904510,128.872467 
	C85.799553,128.805923 83.706604,128.360092 81.173279,128.045746 
	C83.054947,102.478798 105.024986,78.009995 132.390533,70.478424 
	C167.262680,60.880894 204.513824,79.628304 217.549911,113.344757 
	C217.835617,114.083733 218.020493,114.861679 218.241318,115.585144 
	C211.588165,116.464935 205.246521,117.523376 198.862473,117.955849 
	C197.636353,118.038910 195.860870,115.886703 194.984299,114.388138 
	C177.298615,84.153656 135.909607,79.986511 112.898170,106.206108 
	C107.303719,112.580513 103.530182,119.907715 101.638908,128.605621 
z"/>
<path fill="#FDFEFF" opacity="1.000000" stroke="none" 
	d="
M197.999466,213.171539 
	C176.242447,213.171890 154.985291,213.171890 132.802429,213.171890 
	C134.358200,211.519287 135.274048,210.459396 136.278900,209.491959 
	C154.140976,192.294525 171.790878,174.868317 189.954178,157.994827 
	C204.794708,144.208145 225.261093,145.190369 237.348495,159.754883 
	C245.597549,169.694443 247.452545,181.007645 242.623383,192.960541 
	C237.577179,205.450623 227.646820,211.692841 214.466614,212.809509 
	C209.171982,213.258102 203.823364,213.069687 197.999466,213.171539 
z"/>
</svg>